<svg xmlns="http://www.w3.org/2000/svg" width="20" height="44"><path d="M18.1 24.2l-.3 1a11.3 11.3 0 01-2.4 3.3c-.5.5-1 .8-1.7.8-.4 0-1-.1-1.5-.4-.6-.2-1.2-.4-1.7-.4s-1.1.2-1.7.4c-.6.3-1.1.4-1.5.4-.6 0-1.2-.2-1.7-.8a11.3 11.3 0 01-3.5-8c0-1.2.3-2.3.8-3.2A4.8 4.8 0 017 14.9c.5 0 1 0 1.8.4l1.4.4 1.6-.5c.9-.3 1.6-.4 2.2-.4 1.6.1 2.8.8 3.6 1.9a4 4 0 00-2.1 3.6 4 4 0 001.3 3l1.3 1zm-4-13.9v.4a4 4 0 01-1 2.7c-.9 1-1.9 1.5-3 1.4v-.4c0-.9.4-1.8 1.1-2.6a4.3 4.3 0 012.9-1.5z" fill="#333"/><path fill="none" d="M0 0h20v44H0z"/></svg>